<svg xmlns="http://www.w3.org/2000/svg" xmlns:xlink="http://www.w3.org/1999/xlink" width="20" height="20" viewBox="0 0 20 20">
    <defs>
        <path id="prefix__a" d="M12 0c.552 0 1 .448 1 1v2h2.5c.276 0 .5.224.5.5s-.224.5-.5.5h-1.58c0 .026 0 .051-.003.077l-.846 11c-.04.52-.474.923-.997.923H3.926c-.523 0-.957-.402-.997-.923l-.846-11L2.08 4H.5C.224 4 0 3.776 0 3.5S.224 3 .5 3H3V1c0-.552.448-1 1-1h8zm.92 4H3.08l.846 11h8.148l.846-11zM8 5.5c.276 0 .5.224.5.5v7c0 .276-.224.5-.5.5s-.5-.224-.5-.5V6c0-.276.224-.5.5-.5zm-2.97 0c.264 0 .483.205.5.469L5.968 13c.016.259-.18.482-.44.498L5.5 13.5h-.03c-.264 0-.483-.205-.5-.469L4.532 6c-.016-.259.18-.482.44-.498l.06-.001zm5.97 0c.26 0 .47.21.47.47l-.001.029-.44 7.032c-.016.264-.235.469-.499.469h-.03c-.26 0-.47-.21-.47-.47l.001-.029.44-7.032c.016-.264.235-.469.499-.469H11zM12 1H4v2h8V1z"/>
    </defs>
    <g fill="none" fill-rule="evenodd">
        <path d="M0 0H20V20H0z"/>
        <g transform="translate(2 2)">
            <mask id="prefix__b" fill="#fff">
                <use xlink:href="#prefix__a"/>
            </mask>
            <use fill="#8A95A0" fill-rule="nonzero" xlink:href="#prefix__a"/>
            <g fill="#0055A5" mask="url(#prefix__b)">
                <path d="M0 0H16V16H0z"/>
            </g>
        </g>
    </g>
</svg>
